<?xml version="1.0" encoding="utf-8"?>
<!-- Generator: Adobe Illustrator 22.1.0, SVG Export Plug-In . SVG Version: 6.00 Build 0)  -->
<svg version="1.1" xmlns="http://www.w3.org/2000/svg" xmlns:xlink="http://www.w3.org/1999/xlink" x="0px" y="0px"
	 viewBox="0 0 724.6 274" style="enable-background:new 0 0 724.6 274;" xml:space="preserve">
<style type="text/css">
	.st0{fill-rule:evenodd;clip-rule:evenodd;fill:#75D0DF;}
	.st1{fill-rule:evenodd;clip-rule:evenodd;fill:#002E63;}
	.st2{fill-rule:evenodd;clip-rule:evenodd;fill:#0098B9;}
	.st3{fill:none;}
	.st4{fill:#002E63;}
	.st5{fill:none;stroke:#75D0DF;stroke-width:4;stroke-miterlimit:10;}
</style>
<g id="Background">
</g>
<g id="Guides">
</g>
<g id="Foreground">
	<g>
		<g>
			<polygon class="st0" points="360.7,30.4 698.2,30.4 698.2,165.8 360.7,165.8 303,93 			"/>
			<path class="st1" d="M106.1,154.9c-8.6,8.6-20.1,12.7-33.9,12.7c-18.4,0-33.1-7.4-43.9-22.2l-1.9-2.6l20.1-20.5l2.7,3.4
				c7.5,9.4,15.1,13.5,22.8,13.5c5.2,0,9.1-1.7,11.9-5c2.8-3.2,4.5-8.4,4.5-16.2V30.4H119v88.1C119,133.9,114.9,146.2,106.1,154.9z"
				/>
			<polygon class="st1" points="379.6,165.8 342.8,165.8 300.8,110.3 285,126.5 285,165.8 254.5,165.8 254.5,30.4 285,30.4 
				285,88.9 340.4,30.4 378.5,30.4 321.4,89.4 			"/>
			<polygon class="st1" points="224.4,165.8 151,165.8 151,83.3 187.5,139.4 224.4,82.9 			"/>
			<g>
				<path class="st1" d="M438.2,117.4V97h-20.6v7.4H430v9.1c-3.3,2.4-7.2,3.7-11.7,3.7c-4.9,0-8.9-1.6-11.9-4.9
					c-3-3.3-4.6-7.4-4.6-12.5c0-4.8,1.5-8.8,4.5-12.1c3-3.3,6.7-5,11.2-5c2.9,0,5.4,0.4,7.4,1.3c2.1,0.9,4.1,2.2,6.1,3.9l5.4-6.4
					c-2.6-2.2-5.4-3.9-8.2-4.9c-2.9-1.1-6.3-1.6-10.4-1.6c-7.2,0-13.2,2.5-17.9,7.4c-4.7,4.9-7.1,10.8-7.1,17.7
					c0,7.2,2.3,13.2,7,17.9c4.6,4.7,10.7,7.1,18.2,7.1C425.6,124.9,432.4,122.4,438.2,117.4z"/>
				<path class="st1" d="M490.4,124.1l-13.1-18.3c3.6-1,6.4-2.7,8.4-5.2c2.1-2.5,3.1-5.7,3.1-9.5c0-4.8-1.6-8.5-4.8-11.2
					c-3.2-2.7-7.6-4.1-13.2-4.1h-21.6v48.4h8.5v-16.9h10.7l11.9,16.9H490.4z M480.2,91.5c0,2.5-0.9,4.5-2.7,6
					c-1.8,1.5-4.2,2.2-7.3,2.2h-12.5V83.4h12.4c3.2,0,5.7,0.7,7.4,2.1C479.3,86.8,480.2,88.8,480.2,91.5z"/>
				<path class="st1" d="M547.9,99.8c0-7-2.4-12.9-7.1-17.7c-4.8-4.8-10.8-7.3-18.1-7.3c-7.3,0-13.4,2.4-18.2,7.3
					c-4.8,4.9-7.2,10.8-7.2,17.8c0,7,2.4,12.9,7.1,17.7c4.8,4.8,10.8,7.3,18.1,7.3c7.3,0,13.4-2.4,18.2-7.3
					C545.5,112.7,547.9,106.7,547.9,99.8z M538.9,99.9c0,4.8-1.5,8.9-4.6,12.2c-3.1,3.3-7,5-11.7,5c-4.8,0-8.7-1.7-11.8-5.1
					c-3.1-3.4-4.7-7.5-4.7-12.2c0-4.8,1.5-8.9,4.6-12.2c3.1-3.3,7-5,11.7-5c4.8,0,8.7,1.7,11.8,5.1C537.4,91,538.9,95.1,538.9,99.9z
					"/>
				<path class="st1" d="M598.8,75.6h-8.5v27.9c0,4.4-1.1,7.7-3.2,10c-2.1,2.3-5.1,3.5-9,3.5s-6.8-1.2-9-3.6
					c-2.2-2.4-3.3-5.8-3.3-10.2V75.6h-8.5v27.9c0,6.9,1.8,12.2,5.5,15.8c3.7,3.6,8.7,5.5,15.1,5.5c6.5,0,11.6-1.9,15.3-5.6
					c3.7-3.7,5.5-9.1,5.5-16.2V75.6z"/>
				<path class="st1" d="M648.1,91.9c0-4.9-1.7-8.9-5-11.8c-3.3-3-7.8-4.4-13.4-4.4h-19.1v48.4h8.5v-15.6h9.6
					c5.6,0,10.2-1.5,13.9-4.4C646.3,101.2,648.1,97.1,648.1,91.9z M639.4,92.1c0,2.6-0.9,4.7-2.8,6.3c-1.9,1.6-4.4,2.4-7.6,2.4h-9.9
					V83.4h9.9c3.2,0,5.8,0.7,7.6,2.2C638.5,87.1,639.4,89.3,639.4,92.1z"/>
			</g>
			<polygon class="st2" points="187.7,90.3 170.4,60.4 153.1,30.4 187.7,30.4 222.3,30.4 205,60.4 			"/>
		</g>
	</g>
	<g>
		<polygon class="st3" points="0,0 724.6,0 724.6,198 0,198 0,0 		"/>
		<path class="st3" d="M362.3,99"/>
	</g>
	<g>
		<path class="st4" d="M172.1,200.4v-17.1h6.6v17c0,4.9,2.4,7.4,6.5,7.4c4,0,6.5-2.4,6.5-7.2v-17.2h6.6v16.9
			c0,9.1-5.1,13.5-13.2,13.5S172.1,209.2,172.1,200.4z"/>
		<path class="st4" d="M211,183.3h6.6v13.1l12.2-13.1h8L225.5,196l12.8,17.3h-7.9l-9.3-12.8l-3.5,3.6v9.2H211V183.3z"/>
		<path class="st4" d="M283.8,210.3c-2.4,2-5.3,3.3-8.8,3.3c-5.7,0-10.1-3.3-10.1-8.7v-0.1c0-3.8,2.1-6.5,5.8-8.2
			c-1.5-2.1-2.1-3.9-2.1-6v-0.1c0-4.1,3.3-7.9,9.1-7.9c5.1,0,8.4,3.3,8.4,7.5v0.1c0,4-2.6,6.4-6.3,7.8l4,4c1-1.5,2-3.3,2.9-5.1
			l4.8,2.7c-1.2,2.1-2.4,4.3-3.9,6.3l4.4,4.4l-4.8,3.4L283.8,210.3z M280.1,206.6l-5.7-5.8c-2,1-2.8,2.5-2.8,3.9v0.1
			c0,2.1,1.8,3.5,4.2,3.5C277.3,208.3,278.8,207.6,280.1,206.6z M280.5,190.7L280.5,190.7c0-1.8-1.2-2.9-2.8-2.9
			c-1.8,0-2.9,1.2-2.9,3v0.1c0,1.3,0.5,2.3,1.8,3.7C279.1,193.7,280.5,192.6,280.5,190.7z"/>
		<path class="st4" d="M322.1,183.3h6.6v30h-6.6V183.3z"/>
		<path class="st4" d="M342.2,183.3h13.7c3.8,0,6.8,1.1,8.7,3c1.7,1.7,2.6,4,2.6,6.9v0.1c0,4.8-2.6,7.9-6.4,9.3l7.3,10.7h-7.7
			l-6.4-9.6h-5.2v9.6h-6.6V183.3z M355.5,197.8c3.2,0,5.1-1.7,5.1-4.2v-0.1c0-2.8-2-4.3-5.2-4.3h-6.6v8.6H355.5z"/>
		<path class="st4" d="M379.2,183.3h22.6v5.9h-16.1v6.1h14.1v5.9h-14.1v6.3H402v5.9h-22.8V183.3z"/>
		<path class="st4" d="M413.9,183.3h6.6v24h15v6h-21.6V183.3z"/>
		<path class="st4" d="M456.7,183h6.1l12.9,30.2h-6.9l-2.7-6.7h-12.7l-2.7,6.7h-6.7L456.7,183z M463.6,200.7l-4-9.7l-4,9.7H463.6z"
			/>
		<path class="st4" d="M486.2,183.3h6.1l14.1,18.5v-18.5h6.5v30h-5.6l-14.5-19.1v19.1h-6.5V183.3z"/>
		<path class="st4" d="M526.1,183.3h11.7c9.4,0,15.9,6.5,15.9,14.9v0.1c0,8.4-6.5,15-15.9,15h-11.7V183.3z M532.7,189.2v18.1h5.1
			c5.4,0,9-3.6,9-9v-0.1c0-5.3-3.6-9-9-9H532.7z"/>
	</g>
	<line class="st5" x1="140" y1="198.3" x2="25.4" y2="198.3"/>
	<line class="st5" x1="695.7" y1="198.3" x2="581.1" y2="198.3"/>
</g>
</svg>
